Coordinates
version=1
nRows=10
nColumns=40
inDegrees=yes

Units are S.I. units (second, meters, Newtons, ...)
If the header above contains a line with 'inDegrees', this indicates whether rotational values are in degrees (yes) or radians (no).

endheader
time	pelvis_tilt	pelvis_list	pelvis_rotation	pelvis_tx	pelvis_ty	pelvis_tz	hip_flexion_r	hip_adduction_r	hip_rotation_r	knee_angle_r	knee_angle_r_beta	ankle_angle_r	subtalar_angle_r	mtp_angle_r	hip_flexion_l	hip_adduction_l	hip_rotation_l	knee_angle_l	knee_angle_l_beta	ankle_angle_l	subtalar_angle_l	mtp_angle_l	lumbar_extension	lumbar_bending	lumbar_rotation	arm_flex_r	arm_add_r	arm_rot_r	elbow_flex_r	pro_sup_r	wrist_flex_r	wrist_dev_r	arm_flex_l	arm_add_l	arm_rot_l	elbow_flex_l	pro_sup_l	wrist_flex_l	wrist_dev_l
      4.50000000	      1.62516320	     -7.51046119	      4.15401199	     -0.35509323	      0.84087544	     -1.05795223	     59.55742299	     -1.09043395	    -13.31332743	     24.36244165	      0.42520482	     -8.81257281	      0.00000000	      0.00000000	     45.64767478	     -2.50738269	      0.01861135	     82.85930374	      1.44616767	     24.21876752	      0.00000000	      0.00000000	    -19.85236473	      7.44061540	     -0.41486016	     89.89445211	    -15.80565194	     25.75019568	     42.23930350	     85.80019382	      0.00000000	      0.00000000	     89.93077224	    -19.57495796	     26.96539161	     42.96513072	     85.28148900	      0.00000000	      0.00000000
      4.50500000	      1.70505454	     -7.50985923	      4.15057298	     -0.35470879	      0.84311758	     -1.05788873	     59.36052828	     -1.05346457	    -13.33692541	     24.26039109	      0.42342370	     -8.79337869	      0.00000000	      0.00000000	     45.30812120	     -2.55209826	      0.00075890	     82.42999785	      1.43867486	     24.03005286	      0.00000000	      0.00000000	    -19.83644099	      7.43012560	     -0.40289248	     89.89397628	    -15.84222955	     25.95622029	     42.19407669	     85.80623411	      0.00000000	      0.00000000	     89.93044346	    -19.58124309	     27.18093294	     42.94063108	     85.28274395	      0.00000000	      0.00000000
      4.51000000	      1.82135534	     -7.53115428	      4.18224789	     -0.35436514	      0.84546381	     -1.05783923	     59.09620002	     -1.01874975	    -13.29348769	     24.08921009	      0.42043603	     -8.80747514	      0.00000000	      0.00000000	     44.96239528	     -2.61334245	      0.00490999	     82.06030212	      1.43222246	     23.82760675	      0.00000000	      0.00000000	    -19.86260115	      7.43912067	     -0.40538482	     89.89410650	    -15.96328070	     26.26674025	     42.20225982	     85.79341564	      0.00000000	      0.00000000	     89.93059089	    -19.60900051	     27.49585593	     42.93377482	     85.26289111	      0.00000000	      0.00000000
      4.51500000	      1.84063326	     -7.49177921	      4.14451438	     -0.35402618	      0.84757198	     -1.05775593	     58.98478573	     -0.99262396	    -13.12688378	     24.01689508	      0.41917390	     -8.82411538	      0.00000000	      0.00000000	     44.69219651	     -2.64672796	     -0.07599721	     81.64872105	      1.42503901	     23.66154856	      0.00000000	      0.00000000	    -19.79288311	      7.37392641	     -0.39971577	     89.89341790	    -16.04392117	     26.49318835	     42.21443258	     85.74350960	      0.00000000	      0.00000000	     89.93012839	    -19.65498630	     27.71927665	     42.93553616	     85.20782857	      0.00000000	      0.00000000
      4.52000000	      1.78888368	     -7.57405487	      4.17493036	     -0.35377128	      0.84950331	     -1.05768790	     58.97506551	     -0.95880885	    -13.10828091	     24.01161259	      0.41908170	     -8.81991703	      0.00000000	      0.00000000	     44.56276444	     -2.74543907	     -0.04605119	     81.29207054	      1.41881429	     23.56341558	      0.00000000	      0.00000000	    -19.63902311	      7.45126418	     -0.42580952	     89.89205637	    -16.06976577	     26.51943459	     42.20547590	     85.73710070	      0.00000000	      0.00000000	     89.92910439	    -19.64044963	     27.74737430	     42.94783029	     85.20069146	      0.00000000	      0.00000000
      4.52500000	      1.94218087	     -7.50873492	      4.18456005	     -0.35338355	      0.85202773	     -1.05773974	     58.68677059	     -0.97864093	    -13.09665782	     23.89913836	      0.41711865	     -8.83907273	      0.00000000	      0.00000000	     44.09607476	     -2.71586916	     -0.08723489	     80.80627380	      1.41033553	     23.34061600	      0.00000000	      0.00000000	    -19.69839313	      7.37753760	     -0.44337537	     89.89147261	    -16.13697575	     26.77030681	     42.13922637	     85.72951327	      0.00000000	      0.00000000	     89.92919828	    -19.64048213	     27.99040558	     42.86636758	     85.18772125	      0.00000000	      0.00000000
      4.53000000	      1.88967916	     -7.60756052	      4.21964917	     -0.35306781	      0.85398081	     -1.05764682	     58.66819459	     -0.93653768	    -13.09796653	     23.88371006	      0.41684938	     -8.81553421	      0.00000000	      0.00000000	     43.96265941	     -2.81279046	     -0.01713878	     80.45656804	      1.40423202	     23.24537051	      0.00000000	      0.00000000	    -19.55515370	      7.46625803	     -0.43147451	     89.89087985	    -16.15423893	     26.83903085	     42.12684653	     85.73756090	      0.00000000	      0.00000000	     89.92824911	    -19.61022209	     28.02725444	     42.89389697	     85.18235168	      0.00000000	      0.00000000
      4.53500000	      1.90010480	     -7.64583588	      4.21206415	     -0.35275192	      0.85613317	     -1.05755697	     58.57650338	     -0.89355613	    -13.11101740	     23.84216204	      0.41612423	     -8.80987935	      0.00000000	      0.00000000	     43.71953756	     -2.88095948	      0.00105735	     80.02027128	      1.39661720	     23.07458582	      0.00000000	      0.00000000	    -19.46064271	      7.49788213	     -0.45925436	     89.88916175	    -16.22708107	     26.91736328	     42.12772429	     85.73219551	      0.00000000	      0.00000000	     89.92744004	    -19.64559309	     28.14113354	     42.84972271	     85.18184561	      0.00000000	      0.00000000
      4.54000000	      2.02419265	     -7.61762168	      4.29692866	     -0.35247817	      0.85854264	     -1.05762628	     58.30283178	     -0.95190881	    -13.10061021	     23.70505384	      0.41373124	     -8.83960442	      0.00000000	      0.00000000	     43.34416624	     -2.84156409	      0.02134772	     79.57970377	      1.38892785	     22.78463947	      0.00000000	      0.00000000	    -19.49140905	      7.47895532	     -0.51669273	     89.88926956	    -16.31394995	     27.21921746	     42.10442446	     85.72706587	      0.00000000	      0.00000000	     89.92781082	    -19.65358947	     28.45268308	     42.80065179	     85.17153328	      0.00000000	      0.00000000
      4.54500000	      1.99334826	     -7.68669572	      4.29675405	     -0.35211138	      0.86059766	     -1.05752627	     58.26302449	     -0.90443466	    -13.09872483	     23.70199688	      0.41367788	     -8.81609461	      0.00000000	      0.00000000	     43.15672917	     -2.94267470	      0.03755228	     79.18186734	      1.38198429	     22.66857826	      0.00000000	      0.00000000	    -19.36215336	      7.52432340	     -0.54539253	     89.88784021	    -16.34826836	     27.27513310	     42.11002831	     85.72121558	      0.00000000	      0.00000000	     89.92676022	    -19.67243530	     28.49008939	     42.80245920	     85.16351745	      0.00000000	      0.00000000
